<svg width="900" height="650" viewBox="0 0 900 650" fill="none" xmlns="http://www.w3.org/2000/svg" xmlns:xlink="http://www.w3.org/1999/xlink">
<path d="M568.911,32.112C569.651,32.932 570.916,32.996 571.736,32.255C572.555,31.515 572.619,30.25 571.879,29.431L568.911,32.112ZM557.131,16.092L555.647,14.751C554.959,15.513 554.959,16.672 555.647,17.433L557.131,16.092ZM571.879,2.754C572.619,1.934 572.555,0.67 571.736,-0.071C570.916,-0.811 569.651,-0.747 568.911,0.072L571.879,2.754ZM571.879,29.431L558.615,14.751L555.647,17.433L568.911,32.112L571.879,29.431ZM558.615,17.433L571.879,2.754L568.911,0.072L555.647,14.751L558.615,17.433Z" transform="rotate(-178.614 563.763 16.092)" fill="#FFFFFF"/>
<path d="M898.374,331.496C898.374,506.564 697.266,648.484 449.186,648.484C201.108,648.484 0,506.564 0,331.496C0,156.427 201.108,14.506 449.186,14.506C697.266,14.506 898.374,156.427 898.374,331.496Z" stroke="url(#ps_0_43_475)" stroke-width="1" stroke-miterlimit="3.999327"/>
<path d="M842.591,331.496C842.591,506.564 668.431,648.484 453.591,648.484C238.751,648.484 64.589,506.564 64.589,331.496C64.589,156.427 238.751,14.506 453.591,14.506C668.431,14.506 842.591,156.427 842.591,331.496Z" stroke="url(#ps_0_43_476)" stroke-width="1" stroke-miterlimit="3.999327"/>
<path d="M819.104,331.496C819.104,506.564 660.717,648.484 465.334,648.484C269.951,648.484 111.563,506.564 111.563,331.496C111.563,156.427 269.951,14.506 465.334,14.506C660.717,14.506 819.104,156.427 819.104,331.496Z" stroke="url(#ps_0_43_477)" stroke-width="1" stroke-miterlimit="3.999327"/>
<defs>
<linearGradient id="ps_0_43_475" x1="449.187" y1="14.506" x2="449.187" y2="648.484" gradientUnits="userSpaceOnUse">
<stop stop-color="#000000" stop-opacity="0"/>
<stop offset="0.479" stop-color="#763CAC"/>
</linearGradient>
<linearGradient id="ps_0_43_476" x1="453.59" y1="14.506" x2="453.59" y2="648.484" gradientUnits="userSpaceOnUse">
<stop stop-color="#000000" stop-opacity="0"/>
<stop offset="0.479" stop-color="#763CAC"/>
</linearGradient>
<linearGradient id="ps_0_43_477" x1="465.334" y1="14.506" x2="465.334" y2="648.484" gradientUnits="userSpaceOnUse">
<stop stop-color="#000000" stop-opacity="0"/>
<stop offset="0.479" stop-color="#763CAC"/>
</linearGradient>
</defs>
</svg>
