<svg width="26" height="22" viewBox="0 0 26 22" fill="none" xmlns="http://www.w3.org/2000/svg" xmlns:xlink="http://www.w3.org/1999/xlink">
<path d="M21.781,0.569L3.327,0.569C1.938,0.569 0.811,1.587 0.811,2.843L0.811,19.516C0.811,20.771 1.938,21.79 3.327,21.79L21.781,21.79C23.171,21.79 24.298,20.771 24.298,19.516L24.298,2.843C24.298,1.587 23.171,0.569 21.781,0.569ZM13.593,17.119C13.593,19.185 12.25,20.127 10.295,20.127C8.528,20.127 7.506,19.303 6.982,18.304L8.78,17.323C9.126,17.877 9.44,18.346 10.201,18.346C10.924,18.346 11.385,18.09 11.385,17.091L11.385,10.313L13.593,10.313L13.593,17.119L13.593,17.119ZM18.814,20.127C16.764,20.127 15.438,19.246 14.793,18.09L16.591,17.153C17.063,17.849 17.682,18.365 18.767,18.365C19.679,18.365 20.266,17.953 20.266,17.38C20.266,16.698 19.669,16.456 18.657,16.054L18.106,15.84C16.513,15.229 15.459,14.457 15.459,12.833C15.459,11.336 16.722,10.199 18.688,10.199C20.093,10.199 21.1,10.639 21.823,11.795L20.104,12.79C19.726,12.179 19.317,11.937 18.683,11.937C18.038,11.937 17.629,12.307 17.629,12.79C17.629,13.387 18.038,13.628 18.987,14.003L19.538,14.216C21.414,14.94 22.468,15.684 22.468,17.351C22.468,19.142 20.906,20.127 18.814,20.127L18.814,20.127Z" fill="url(#pf_0_43_478)"/>
<defs>
<linearGradient id="pf_0_43_478" x1="12.554" y1="0.569" x2="12.554" y2="21.79" gradientUnits="userSpaceOnUse">
<stop stop-color="#693B93" stop-opacity="0.53"/>
<stop offset="1" stop-color="#693B93"/>
</linearGradient>
</defs>
</svg>
