<svg width="24" height="22" viewBox="0 0 24 22" fill="none" xmlns="http://www.w3.org/2000/svg" xmlns:xlink="http://www.w3.org/1999/xlink">
<path d="M12.111,21.432C11.759,21.432 11.402,21.356 11.091,21.213L7.848,19.676C7.364,19.457 7.601,19.381 7.759,19.339C8.405,19.158 8.537,19.12 9.225,18.804C9.299,18.771 9.394,18.783 9.467,18.821L11.959,20.004C12.048,20.046 12.174,20.046 12.258,20.004L21.967,15.515C22.057,15.473 22.115,15.389 22.115,15.305L22.115,6.327C22.115,6.239 22.057,6.159 21.962,6.112L12.258,1.628C12.169,1.586 12.048,1.586 11.959,1.628L2.26,6.117C2.166,6.159 2.108,6.243 2.108,6.331L2.108,15.305C2.108,15.389 2.166,15.473 2.26,15.511L4.92,16.741C6.366,17.318 7.249,16.64 7.249,15.953L7.249,7.094C7.249,6.967 7.375,6.87 7.533,6.87L8.763,6.87C8.915,6.87 9.047,6.967 9.047,7.094L9.047,15.958C9.047,17.499 7.995,18.383 6.171,18.383C5.609,18.383 5.167,18.383 3.937,17.895L1.393,16.72C0.762,16.429 0.373,15.886 0.373,15.301L0.373,6.327C0.373,5.746 0.762,5.199 1.393,4.908L11.091,0.419C11.706,0.141 12.521,0.141 13.131,0.419L22.84,4.912C23.471,5.203 23.86,5.746 23.86,6.331L23.86,15.305C23.86,15.886 23.471,16.429 22.84,16.724L13.131,21.213C12.821,21.356 12.469,21.432 12.111,21.432ZM19.949,12.585C19.949,10.904 18.53,10.458 15.549,10.142C12.532,9.822 12.227,9.658 12.227,9.094C12.227,8.626 12.484,8.003 14.719,8.003C16.711,8.003 17.447,8.348 17.752,9.426C17.778,9.528 17.894,9.603 18.025,9.603L19.287,9.603C19.365,9.603 19.439,9.578 19.492,9.532C19.544,9.485 19.57,9.422 19.565,9.359C19.371,7.502 17.831,6.639 14.719,6.639C11.948,6.639 10.298,7.574 10.298,9.144C10.298,10.846 11.943,11.317 14.598,11.528C17.778,11.776 18.025,12.151 18.025,12.652C18.025,13.519 17.152,13.89 15.108,13.89C12.537,13.89 11.975,13.372 11.785,12.349C11.764,12.239 11.649,12.159 11.507,12.159L10.25,12.159C10.093,12.159 9.972,12.26 9.972,12.383C9.972,13.692 10.86,15.254 15.113,15.254C18.183,15.25 19.949,14.277 19.949,12.585L19.949,12.585Z" fill="url(#pf_0_43_479)"/>
<defs>
<linearGradient id="pf_0_43_479" x1="12.116" y1="0.211" x2="12.116" y2="21.432" gradientUnits="userSpaceOnUse">
<stop stop-color="#693B93" stop-opacity="0.53"/>
<stop offset="1" stop-color="#693B93"/>
</linearGradient>
</defs>
</svg>
